<svg width="70" height="51" viewBox="0 0 70 51" fill="none" xmlns="http://www.w3.org/2000/svg">
<path fill-rule="evenodd" clip-rule="evenodd" d="M5.93143 9.69109C1.66371 10.8346 -0.868956 15.2213 0.274579 19.489L4.30437 34.5284C5.44791 38.7962 9.83459 41.3288 14.1023 40.1853L17.801 39.1942L19.3 44.7886C20.4435 49.0563 24.8302 51.589 29.098 50.4455L63.1962 41.3089C67.4639 40.1653 69.9966 35.7786 68.8531 31.5109L64.8233 16.4715C63.6797 12.2038 59.2931 9.67114 55.0253 10.8147L51.3267 11.8057L49.8276 6.21134C48.6841 1.94361 44.2974 -0.589048 40.0297 0.554486L5.93143 9.69109ZM51.3267 11.8057L20.9271 19.9513C16.6593 21.0948 14.1267 25.4815 15.2702 29.7492L17.801 39.1942L48.2006 31.0487C52.4683 29.9052 55.001 25.5185 53.8574 21.2507L51.3267 11.8057Z" fill="#FFBDBE"/>
</svg>
